STARTFONT 2.1
CHARS 7
STARTCHAR 0xE0A0
ENCODING 57504
SWIDTH 960 0
DWIDTH 10 0
BBX 10 11 0 -2
BITMAP
3000
3200
3700
3200
3200
0600
1C00
3000
3000
3000
0000
ENDCHAR
STARTCHAR 0xE0A1
ENCODING 57505
SWIDTH 480 0
DWIDTH 5 0
BBX 5 11 0 -2
BITMAP
00
80
80
80
E0
00
70
50
50
50
00
ENDCHAR
STARTCHAR 0xE0A2
ENCODING 57506
SWIDTH 960 0
DWIDTH 10 0
BBX 10 11 0 -2
BITMAP
0000
1C00
2200
2200
2200
7F00
7700
7700
7700
7F00
0000
ENDCHAR
STARTCHAR 0xE0B0
ENCODING 57520
SWIDTH 480 0
DWIDTH 5 0
BBX 5 11 0 -2
BITMAP
00
80
C0
E0
F0
F8
F0
E0
C0
80
00
ENDCHAR
STARTCHAR 0xE0B1
ENCODING 57521
SWIDTH 480 0
DWIDTH 5 0
BBX 5 11 0 -2
BITMAP
00
80
C0
60
30
18
30
60
C0
80
00
ENDCHAR
STARTCHAR 0xE0B2
ENCODING 57522
SWIDTH 480 0
DWIDTH 5 0
BBX 5 11 0 -2
BITMAP
00
08
18
38
78
F8
78
38
18
08
00
ENDCHAR
STARTCHAR 0xE0B3
ENCODING 57523
SWIDTH 480 0
DWIDTH 5 0
BBX 5 11 0 -2
BITMAP
00
08
18
30
60
C0
60
30
18
08
00
ENDCHAR
ENDFONT
